<?xml version='1.0' encoding='UTF-8' standalone='no'?>
<svg
  xmlns:dc="http://purl.org/dc/elements/1.1/"
  xmlns:cc="http://creativecommons.org/ns#"
  xmlns:rdf="http://www.w3.org/1999/02/22-rdf-syntax-ns#"
  xmlns:svg="http://www.w3.org/2000/svg"
  xmlns="http://www.w3.org/2000/svg"
  height="1.6399212in"
  version="1.2"
  width="3.3288975in"
  viewBox="0 0 3328.8974 1639.9212"
  id="svg22">
  <metadata
    id="metadata28">
    <rdf:RDF>
      <cc:Work
        rdf:about="">
        <dc:format>image/svg+xml</dc:format>
        <dc:type
          rdf:resource="http://purl.org/dc/dcmitype/StillImage"
        />
        <dc:title/>
      </cc:Work>
    </rdf:RDF>
  </metadata>
  <defs
    id="defs26"
  />
  <desc
    id="desc2">
    <referenceFile>2x 18650 battery_a073d98e2829ed2513701f253b833ca9_1_pcb.svg</referenceFile>
  </desc>
  <desc
    id="desc4">Fritzing
    footprint
    SVG</desc>
  <g
    id="silkscreen">
    <line
      stroke-width="10"
      stroke="#000000"
      x1="5"
      y2="1635.9841"
      y1="5.9844513"
      x2="5"
      id="line6"
    />
    <line
      stroke-width="10"
      stroke="#000000"
      x1="5.9055099"
      y2="1634.9211"
      y1="1634.9211"
      x2="3324.9211"
      id="line8"
    />
    <line
      stroke-width="10"
      stroke="#000000"
      x1="3323.8975"
      y2="5.9843903"
      y1="1635.9841"
      x2="3323.8975"
      id="line10"
    />
    <line
      stroke-width="10"
      stroke="#000000"
      x1="3324.9211"
      y2="5"
      y1="5"
      x2="5.9055099"
      id="line12"
    />
    <circle
      cy="441.29813"
      cx="441.5"
      id="path46"
      r="44.5"
      stroke-width="10.41666698"
    />
    <circle
      id="circle48"
      cx="440"
      cy="1200.8799"
      r="43"
      stroke-width="10.41666698"
    />
    <circle
      r="43"
      cy="1200.8799"
      cx="2882"
      id="circle50"
      stroke-width="10.41666698"
    />
    <circle
      id="circle52"
      cx="2882"
      cy="441.03732"
      r="43"
      stroke-width="10.41666698"
    />
    <polygon
      text-rendering="geometricPrecision"
      shape-rendering="geometricPrecision"
      image-rendering="optimizeQuality"
      fill-rule="nonzero"
      fill="#000000"
      clip-rule="evenodd"
      id="polygon15"
      points="702.75,2367.36 702.75,2554.02 623.71,2554.02 623.71,2367.36 438.01,2367.36 438.01,2289.27 623.71,2289.27 623.71,2103.58 702.75,2103.58 702.75,2289.27 888.45,2289.27 888.45,2367.36 "
      transform="matrix(0.35003531,0,0,0.35003573,15.721813,9.9211596)"
    />
    <polygon
      text-rendering="geometricPrecision"
      shape-rendering="geometricPrecision"
      image-rendering="optimizeQuality"
      fill-rule="nonzero"
      fill="#000000"
      clip-rule="evenodd"
      id="polygon17"
      points="8947.15,2286.89 8947.15,2370.69 8688.13,2370.69 8688.13,2286.89 "
      transform="matrix(0.35003531,0,0,0.35003573,15.721813,9.9211596)"
    />
    <path
      text-rendering="geometricPrecision"
      shape-rendering="geometricPrecision"
      image-rendering="optimizeQuality"
      stroke-width="0.35003555"
      fill-rule="nonzero"
      fill="#000000"
      clip-rule="evenodd"
      id="path19"
      d="m 713.92318,716.91288 h 54.22397 c 7.0567,0.1085 13.94539,2.3908 20.66607,6.8362 6.66817,4.4454 11.61418,9.829 14.72599,16.1086 l 27.00172,54.7246 c 5.11052,9.885 7.66577,20.1656 7.66577,30.9397 0,9.94448 -2.71977,20.22508 -8.11032,30.72608 l -27.22574,54.0561 c -3.44086,6.9447 -8.43936,12.4997 -14.93949,16.6652 -6.50017,4.1689 -13.78091,6.2796 -21.83523,6.2796 h -52.22525 c -3.77687,0 -7.00071,-1.3336 -9.66447,-4.0534 -2.66377,-2.7233 -4.00091,-5.9436 -4.00091,-9.612 0,-3.7804 1.33363,-7.0567 4.00091,-9.836 2.66376,-2.7793 5.8911,-4.1654 9.66447,-4.1654 h 14.33395 V 744.57968 h -14.16593 c -3.83639,0 -7.11273,-1.3861 -9.77999,-4.1654 -2.71978,-2.7758 -4.05341,-6.0556 -4.05341,-9.836 0,-3.6649 1.33363,-6.8852 4.00091,-9.612 2.66376,-2.7198 5.8911,-4.0534 9.72047,-4.0534 z m 41.6157,27.6668 v 161.00248 l 9.55596,0.2765 c 6.0556,0 10.60958,-2.9438 13.66538,-8.9434 l 27.27823,-53.6115 c 3.38834,-7.0007 4.99852,-12.9443 4.8305,-17.71878 0,-5.9996 -1.33015,-11.6702 -4.05341,-17.0012 l -27.88731,-55.7782 c -2.8913,-5.4991 -7.66928,-8.2784 -14.38996,-8.2259 z"
    />
    <path
      text-rendering="geometricPrecision"
      shape-rendering="geometricPrecision"
      image-rendering="optimizeQuality"
      stroke-width="0.35003555"
      fill-rule="nonzero"
      fill="#000000"
      clip-rule="evenodd"
      d="m 967.20174,905.58216 46.00156,-29.333 v -86.05628 c 0,-3.7804 1.3336,-7.0567 4.0009,-9.836 2.6707,-2.7198 5.8911,-4.1094 9.6679,-4.1094 3.777,0 7.0009,1.3896 9.6646,4.1654 2.6708,2.7233 4.0008,5.9996 4.0008,9.78 v 129.39068 c 0,3.7209 -1.33,6.8852 -4.0533,9.612 -2.7198,2.7198 -5.9437,4.0534 -9.6121,4.0534 -3.6684,0 -6.8887,-1.3336 -9.6119,-4.0534 -2.7233,-2.7233 -4.0604,-5.8911 -4.0604,-9.556 v -10.7251 l -23.72186,15.3911 c -9.3354,5.9436 -18.7794,8.9434 -28.2793,8.9434 h -12.7203 c -11.1661,0 -20.7221,-3.8889 -28.7799,-11.7192 -7.99834,-7.7778 -12.27576,-17.3338 -12.83232,-28.6154 l -4.0009,-103.00148 c -0.22406,-3.5564 1.05359,-6.7767 3.82938,-9.5 2.77929,-2.7758 6.05562,-4.1654 9.83599,-4.1654 3.66485,0 6.83615,1.3336 9.49995,4.0534 2.6638,2.7198 4.0534,5.9436 4.1654,9.612 l 3.6684,100.99928 c 0.3291,9.78 5.8911,14.67 16.7212,14.67 h 16.6092 z"
      id="1"
      gorn="0.1.9"
    />
    <path
      text-rendering="geometricPrecision"
      shape-rendering="geometricPrecision"
      image-rendering="optimizeQuality"
      stroke-width="0.35003555"
      fill-rule="nonzero"
      fill="#000000"
      clip-rule="evenodd"
      d="m 1144.3719,834.58436 h 53.7235 c 2.9403,0 7.2211,0.6651 12.7203,1.9987 l -0.6091,-19.33598 c 0,-3.8363 -1.3335,-7.0567 -4.0009,-9.6644 -2.6708,-2.6708 -5.9437,-4.001 -9.7241,-4.001 h -52.2217 c -3.6646,0 -6.8886,-1.3336 -9.6118,-4.0604 -2.7233,-2.7197 -4.1129,-5.9401 -4.1129,-9.6119 0,-3.7769 1.3336,-7.0008 4.0009,-9.6645 2.6708,-2.6638 5.8911,-4.0009 9.7238,-4.0009 h 52.1097 c 11.3342,0 20.9989,3.9449 29.0006,11.8907 7.9983,7.8863 12.1708,17.6103 12.4998,29.1089 l 3.3358,102.33648 c 0,3.7769 -1.3336,7.0007 -4.0533,9.6645 -2.7234,2.6638 -5.9437,4.0009 -9.6155,4.0009 -3.8854,0 -7.2213,-1.3336 -9.9409,-4.0009 -2.7235,-2.6638 -4.0607,-5.8911 -4.0607,-9.6645 l -23.1092,13.6654 h -46.2222 c -11.4986,0 -21.2786,-4.0009 -29.2804,-12.0552 -8.0543,-7.9983 -12.0552,-17.7784 -12.0552,-29.2805 v -16.0002 c 0,-11.3901 4.0533,-21.1106 12.1636,-29.2209 8.1139,-8.0544 17.8904,-12.1113 29.3329,-12.1113 z m 68.11,53.3315 -0.7771,-11.6107 c -0.1084,-3.9449 -1.5016,-7.1652 -4.0534,-9.78 -2.6148,-2.6113 -5.8351,-3.9414 -9.6154,-3.9414 h -53.8319 c -3.7803,0 -7.0006,1.3301 -9.6679,4.0009 -2.6638,2.6638 -4.0009,5.8841 -4.0009,9.6645 v 15.335 c 0,3.6649 1.3336,6.8852 4.0604,9.612 2.7198,2.7198 5.94,4.0534 9.6119,4.0534 h 38.5563 l 29.7215,-17.3337 z"
      id="2"
      gorn="0.1.10"
    />
    <path
      text-rendering="geometricPrecision"
      shape-rendering="geometricPrecision"
      image-rendering="optimizeQuality"
      stroke-width="0.35003555"
      fill-rule="nonzero"
      fill="#000000"
      clip-rule="evenodd"
      d="m 1415.485,933.24896 h -82.8886 c -3.8363,0 -7.0565,-1.3896 -9.7238,-4.1654 -2.6638,-2.7793 -4.001,-6.0556 -4.001,-9.836 0,-3.6649 1.3337,-6.8887 4.001,-9.612 2.6708,-2.7233 5.891,-4.0534 9.668,-4.0534 h 27.3307 V 744.24718 h -27.4392 c -3.7805,0 -6.9448,-1.3337 -9.6156,-4.0009 -2.6112,-2.6708 -3.9449,-5.8911 -3.9449,-9.668 0,-3.7769 1.3337,-7.0007 3.9449,-9.6645 2.6708,-2.6638 5.8911,-4.0009 9.668,-4.0009 h 41.4441 c 3.6649,0 6.8852,1.3336 9.5561,4.0534 2.7198,2.7233 4.0535,5.9436 4.0535,9.612 v 175.00388 h 27.8907 c 3.7209,0 6.9412,1.3301 9.6644,4.0534 2.7198,2.7198 4.1095,5.9436 4.1095,9.612 0,3.7804 -1.3338,7.0567 -4.0011,9.836 -2.6636,2.7758 -5.891,4.1654 -9.7203,4.1654 z"
      id="3"
      gorn="0.1.11"
    />
    <path
      text-rendering="geometricPrecision"
      shape-rendering="geometricPrecision"
      image-rendering="optimizeQuality"
      stroke-width="0.35003555"
      fill-rule="nonzero"
      fill="#000000"
      clip-rule="evenodd"
      d="m 1720.4847,905.91466 h 41.7241 V 744.25068 h -41.0556 c -3.7802,0 -7.0006,-1.3336 -9.668,-4.0009 -2.6113,-2.6708 -3.9449,-5.8911 -3.9449,-9.668 0,-3.7769 1.3336,-7.0007 3.9449,-9.6645 2.6708,-2.6637 5.8912,-4.0009 9.668,-4.0009 h 68.3865 v 189.00178 h 27.3341 v -56.9998 c 0,-3.6649 1.3337,-6.8887 4.001,-9.612 2.6637,-2.7198 5.891,-4.0534 9.6644,-4.0534 3.7805,0 7.0007,1.3336 9.6682,4.0009 2.6637,2.6638 4.0007,5.8911 4.0007,9.6645 v 70.6687 c 0,3.7769 -1.3334,7.0007 -4.0007,9.6645 -2.6115,2.6638 -5.8352,4.0009 -9.6123,4.0009 h -110.114 c -3.7767,0 -7.0006,-1.3896 -9.612,-4.1654 -2.6637,-2.7233 -4.0009,-6.0556 -4.0009,-9.836 0,-3.6649 1.3337,-6.8362 3.945,-9.444 2.6638,-2.6113 5.8912,-3.8889 9.6645,-3.8889 z"
      id="4"
      gorn="0.1.12"
    />
    <path
      text-rendering="geometricPrecision"
      shape-rendering="geometricPrecision"
      image-rendering="optimizeQuality"
      stroke-width="0.35003555"
      fill-rule="nonzero"
      fill="#000000"
      clip-rule="evenodd"
      d="m 1908.2085,905.52966 v -66.8883 c 0,-7.5013 2.7199,-13.94548 8.1104,-19.33598 5.4464,-5.3906 11.9431,-8.0544 19.5565,-8.0544 v -80.6692 c 0,-3.7769 1.2811,-7.0007 3.8888,-9.6645 2.6114,-2.6637 5.835,-4.0009 9.724,-4.0009 h 55.4455 c 3.7771,0 7.0008,1.3336 9.6646,4.0009 2.6114,2.6638 3.9448,5.8911 3.9448,9.6645 v 80.6692 c 7.3893,0 13.7741,2.6113 19.2205,7.8898 5.3905,5.2751 8.1138,11.77528 8.1138,19.50058 v 67.2208 c 0,7.5013 -2.7233,13.9454 -8.1138,19.336 -5.4464,5.3905 -11.7752,8.0543 -19.1646,8.0543 h -82.7796 c -7.7218,0 -14.222,-2.8353 -19.5565,-8.4989 -5.3906,-5.611 -8.0544,-12.0552 -8.0544,-19.2204 z m 55.0012,-161.27898 v 67.0003 h 27.9991 v -67.0003 z m -27.3343,94.33458 v 67.3294 h 82.6677 v -67.3294 z"
      id="5"
      gorn="0.1.13"
    />
    <path
      text-rendering="geometricPrecision"
      shape-rendering="geometricPrecision"
      image-rendering="optimizeQuality"
      stroke-width="0.35003555"
      fill-rule="nonzero"
      fill="#000000"
      clip-rule="evenodd"
      d="m 2124.0999,716.91288 h 13.5532 c 3.7805,0 6.9447,1.3336 9.6155,4.0534 2.6114,2.7233 3.9414,5.9436 3.9414,9.612 0,3.7804 -1.33,7.0007 -4.001,9.668 -2.6637,2.6637 -5.884,4.0009 -9.6642,4.0009 v 90.66628 h 96.6096 c 3.7244,0 6.9446,1.3896 9.668,4.1689 2.7197,2.7758 4.0534,6.0556 4.0534,9.829 v 70.6687 c 0,3.7769 -1.3896,7.0007 -4.1654,9.6645 -2.7233,2.6638 -6.0592,4.0009 -9.836,4.0009 h -109.6696 c -3.7769,0 -7.1092,-1.3336 -9.829,-4.0534 -2.7793,-2.7233 -4.1688,-5.9436 -4.1688,-9.612 V 730.57478 c 0,-3.7769 1.3334,-7.0007 4.0533,-9.6645 2.6708,-2.6638 5.9436,-4.0009 9.836,-4.0009 z m 13.4449,145.67088 v 43.3309 h 82.6641 v -43.3309 z"
      id="6"
      gorn="0.1.14"
    />
    <path
      text-rendering="geometricPrecision"
      shape-rendering="geometricPrecision"
      image-rendering="optimizeQuality"
      stroke-width="0.35003555"
      fill-rule="nonzero"
      fill="#000000"
      clip-rule="evenodd"
      d="m 2361.6023,905.91466 h 63.2757 v -67.3294 h -82.6642 V 716.91638 h 96.3297 c 3.6685,0 6.8887,1.3336 9.6155,4.0534 2.7197,2.7233 4.0534,5.9436 4.0534,9.612 0,3.7804 -1.3337,7.0007 -4.001,9.668 -2.6637,2.6637 -5.8909,4.0009 -9.6679,4.0009 h -68.6664 v 67.0003 h 55.0009 c 7.3895,0 13.781,2.7198 19.224,8.1664 5.3871,5.4465 8.1104,11.83468 8.1104,19.22398 v 67.2208 c 0,7.5013 -2.6639,13.9454 -8.0544,19.336 -5.3904,5.3905 -11.7785,8.0543 -19.28,8.0543 h -63.3353 c -5.6111,0 -11.6106,-1.3336 -18.0548,-4.0534 l -20.6661,-8.6109 c -5.4989,-2.2787 -8.2783,-6.6157 -8.2783,-13.0003 0,-3.8364 1.2252,-7.0567 3.7244,-9.668 2.4992,-2.6638 5.555,-4.0009 9.1114,-4.0009 2.7197,0 5.8911,0.8331 9.4441,2.4432 l 18.0547,7.6098 c 2.2227,1.2811 4.4452,1.9462 6.7242,1.9462 z"
      id="7"
      gorn="0.1.15"
    />
    <path
      text-rendering="geometricPrecision"
      shape-rendering="geometricPrecision"
      image-rendering="optimizeQuality"
      stroke-width="0.35003555"
      fill-rule="nonzero"
      fill="#000000"
      clip-rule="evenodd"
      d="M 2512.2121,906.85976 V 743.30558 c 0,-7.1652 2.6111,-13.3889 7.8335,-18.5554 5.1666,-5.226 11.3869,-7.8338 18.4995,-7.8338 h 85.2755 c 7.0568,0 13.1683,2.6113 18.335,7.8338 5.1665,5.1665 7.7253,11.3902 7.7253,18.5554 v 163.55418 c 0,7.2808 -2.5588,13.5009 -7.7253,18.6709 -5.1667,5.1665 -11.3902,7.7218 -18.6115,7.7218 h -84.999 c -7.3332,0 -13.6129,-2.5553 -18.671,-7.7218 -5.1105,-5.17 -7.6656,-11.3901 -7.6656,-18.6709 z m 110.6635,-0.9451 V 744.57968 h -83.3293 v 161.33498 z"
      id="8"
      gorn="0.1.16"
    />
  </g>
  <g
    id="coper1">
    <g
      id="copper0">
      <circle
        stroke-width="20"
        stroke="#ffbf00"
        fill="none"
        gorn="0.3.0.1"
        id="connector0pin"
        cx="237.92154"
        cy="441.03732"
        r="29"
      />
      <circle
        stroke-width="20"
        stroke="#ffbf00"
        fill="none"
        cy="1200.8954"
        cx="237.97952"
        id="connector1pin"
        r="29"
        gorn="0.3.0.2"
      />
      <circle
        stroke-width="20"
        stroke="#ffbf00"
        fill="none"
        gorn="0.3.0.2"
        r="29"
        id="connector2pin"
        cx="3092.2524"
        cy="1200.8956"
      />
      <circle
        stroke-width="20"
        stroke="#ffbf00"
        fill="none"
        gorn="0.3.0.1"
        r="29"
        id="connector3pin"
        cx="3092.2524"
        cy="441.05307"
      />
    </g>
  </g>
</svg>
