<?xml version='1.0' encoding='UTF-8' standalone='no'?>
<!-- Created with Fritzing (http://www.fritzing.org/) -->
<svg xmlns="http://www.w3.org/2000/svg"  version="1.2" x="0in" height="0.7in" width="1in" y="0in" baseProfile="tiny" viewBox="0 0 72 50.4">
    <desc>
        <referenceFile>BMP390 QT rev B_pcb.svg</referenceFile>
    </desc>
    <desc >Fritzing footprint generated by brd2svg</desc>
    <g  id="silkscreen" gorn="0.1">
        <path  fill="none" d="M0.288,7.4057A6.912,6.912,0,0,1,7.4304,0.288L64.5696,0.288A6.912,6.912,0,0,1,71.712,7.4057L71.712,42.9943A6.912,6.912,0,0,1,64.5696,50.112L7.4304,50.112A6.912,6.912,0,0,1,0.288,42.9943L0.288,7.4057" stroke-width="0.576" stroke="white"/>
        <g >
            <title >element:CONN3</title>
            <g >
                <title >package:JST_SH4</title>
                <line  y2="33.7039" y1="33.7039" x2="58.1641" stroke-linecap="round" x1="65.5342" stroke-width="0.432" stroke="white"/>
                <line  y2="30.5858" y1="33.7039" x2="58.1641" stroke-linecap="round" x1="58.1641" stroke-width="0.432" stroke="white"/>
                <line  y2="16.4126" y1="19.8142" x2="58.1641" stroke-linecap="round" x1="58.1641" stroke-width="0.432" stroke="white"/>
                <line  y2="16.4126" y1="16.4126" x2="65.5342" stroke-linecap="round" x1="58.1641" stroke-width="0.432" stroke="white"/>
                <line  y2="19.2473" y1="31.1527" x2="70.3531" stroke-linecap="round" x1="70.3531" stroke-width="0.432" stroke="white"/>
            </g>
        </g>
        <g >
            <title >element:CONN4</title>
            <g >
                <title >package:JST_SH4</title>
                <line  y2="16.6961" y1="16.6961" x2="13.8359" stroke-linecap="round" x1="6.46583" stroke-width="0.432" stroke="white"/>
                <line  y2="19.8142" y1="16.6961" x2="13.8359" stroke-linecap="round" x1="13.8359" stroke-width="0.432" stroke="white"/>
                <line  y2="33.9874" y1="30.5858" x2="13.8359" stroke-linecap="round" x1="13.8359" stroke-width="0.432" stroke="white"/>
                <line  y2="33.9874" y1="33.9874" x2="6.46583" stroke-linecap="round" x1="13.8359" stroke-width="0.432" stroke="white"/>
                <line  y2="31.1527" y1="19.2473" x2="1.64693" stroke-linecap="round" x1="1.64693" stroke-width="0.432" stroke="white"/>
            </g>
        </g>
        <g >
            <title >element:JP1</title>
            <g >
                <title >package:1X08_ROUND_70</title>
            </g>
        </g>
        <g >
            <title >element:U$48</title>
            <g >
                <title >package:STEMMAQT</title>
            </g>
        </g>
        <g >
            <title >element:U$49</title>
            <g >
                <title >package:STEMMAQT</title>
            </g>
        </g>
    </g>
    <g  id="copper1" gorn="0.2">
        <g  id="copper0" gorn="0.2.0">
            <circle  id="connector46pad" cy="43.2" r="1.96866" fill="none" cx="61.2" connectorname="INT" stroke-width="1.10268" stroke="#F7BD13" gorn="0.2.0.0"/>
            <circle  id="connector42pad" cy="43.2" r="1.96866" fill="none" cx="32.4" connectorname="SCK/SCL" stroke-width="1.10268" stroke="#F7BD13" gorn="0.2.0.1"/>
            <g  transform="matrix(-1, 0, 0, -1, 114.628, 58.9039)">
                <g >
                    <rect  id="connector11pad" fill="#F7BD13" x="55.1169" height="1.70078" width="4.3937" stroke-width="0" stroke="none" y="28.6016" gorn="0.2.0.2.0.0"/>
                </g>
            </g>
            <g  transform="matrix(-1, 0, 0, -1, 114.628, 53.2346)">
                <g >
                    <rect  id="connector12pad" fill="#F7BD13" x="55.1169" height="1.70078" width="4.3937" stroke-width="0" stroke="none" y="25.7669" gorn="0.2.0.3.0.0"/>
                </g>
            </g>
            <g  transform="matrix(-1, 0, 0, -1, 114.628, 47.5654)">
                <g >
                    <rect  id="connector13pad" fill="#F7BD13" x="55.1169" height="1.70078" width="4.3937" stroke-width="0" stroke="none" y="22.9323" gorn="0.2.0.4.0.0"/>
                </g>
            </g>
            <circle  id="connector40pad" cy="43.2" r="1.96866" fill="none" cx="18" connectorname="3.3V" stroke-width="1.10268" stroke="#F7BD13" gorn="0.2.0.5"/>
            <g  transform="matrix(-1, 0, 0, -1, 114.628, 41.8961)">
                <g >
                    <rect  id="connector14pad" fill="#F7BD13" x="55.1169" height="1.70078" width="4.3937" stroke-width="0" stroke="none" y="20.0976" gorn="0.2.0.6.0.0"/>
                </g>
            </g>
            <circle  id="connector44pad" cy="43.2" r="1.96866" fill="none" cx="46.8" connectorname="SDI/SDA" stroke-width="1.10268" stroke="#F7BD13" gorn="0.2.0.7"/>
            <rect  id="connector17pad" fill="#F7BD13" x="12.4895" height="1.70078" width="4.3937" stroke-width="0" stroke="none" y="20.0976" gorn="0.2.0.8"/>
            <rect  id="connector18pad" fill="#F7BD13" x="12.4895" height="1.70078" width="4.3937" stroke-width="0" stroke="none" y="22.9323" gorn="0.2.0.9"/>
            <rect  id="connector19pad" fill="#F7BD13" x="12.4895" height="1.70078" width="4.3937" stroke-width="0" stroke="none" y="25.7669" gorn="0.2.0.10"/>
            <rect  id="connector20pad" fill="#F7BD13" x="12.4895" height="1.70078" width="4.3937" stroke-width="0" stroke="none" y="28.6016" gorn="0.2.0.11"/>
            <circle  id="connector68pad" cy="7.2" r="4.26331" fill="none" cx="64.8" connectorname="P$1" stroke-width="1.44" stroke="#F7BD13" gorn="0.2.0.12"/>
            <circle  id="connector41pad" cy="43.2" r="1.96866" fill="none" cx="25.2" connectorname="GND" stroke-width="1.10268" stroke="#F7BD13" gorn="0.2.0.13"/>
            <circle  id="connector43pad" cy="43.2" r="1.96866" fill="none" cx="39.6" connectorname="SDO/ADR" stroke-width="1.10268" stroke="#F7BD13" gorn="0.2.0.14"/>
            <circle  id="connector45pad" cy="43.2" r="1.96866" fill="none" cx="54" connectorname="CS" stroke-width="1.10268" stroke="#F7BD13" gorn="0.2.0.15"/>
            <circle  id="connector67pad" cy="7.2" r="4.26331" fill="none" cx="7.2" connectorname="P$1" stroke-width="1.44" stroke="#F7BD13" gorn="0.2.0.16"/>
            <circle  id="connector39pad" cy="43.2" r="1.96866" fill="none" cx="10.8" connectorname="VCC" stroke-width="1.10268" stroke="#F7BD13" gorn="0.2.0.17"/>
        </g>
    </g>
</svg>
