<?xml version='1.0' encoding='utf-8'?>
<!-- Generator: Adobe Illustrator 24.2.3, SVG Export Plug-In . SVG Version: 6.00 Build 0)  -->
<svg xmlns="http://www.w3.org/2000/svg"  id="Layer_1" version="1.1" enable-background="new 0 0 86.4 72" x="0px" height="1in" width="1.2in" xmlns:xml="http://www.w3.org/XML/1998/namespace" y="0px" xml:space="preserve" gorn="0" viewBox="0 0 86.4 72">
    <desc>
        <referenceFile>BMP390 QT rev B_schematic.svg</referenceFile>
    </desc>
    <desc >Fritzing schematic generated by brd2svg</desc>
    <g  id="schematic" gorn="0.1">
        <rect  fill="none" x="14.4" stroke-linecap="round" stroke-linejoin="round" height="43.2" width="57.15" stroke-width="0.9" y="14.4" stroke="#000000"/>
        <g  transform="matrix(1 0 0 1 36.773 32.9633)">
            <text  id="label" font-family="'DroidSans'" font-size="2.8" gorn="0.1.1.0">BMP390</text>
        </g>
        <g  transform="matrix(1 0 0 1 40.7164 39.3532)">
            <text  id="label_1_" font-family="'DroidSans'" font-size="2.8" gorn="0.1.2.0">QT</text>
        </g>
        <g  transform="matrix(1 0 0 1 36.4335 36.0826)">
            <text  id="label_2_" font-family="'DroidSans'" font-size="2.8" gorn="0.1.3.0">STEMMA</text>
        </g>
        <g  transform="matrix(1 0 0 1 36.8287 29.5918)">
            <text  id="label_3_" font-family="'DroidSans'" font-size="2.8" gorn="0.1.4.0">Adafruit</text>
        </g>
        <line  y1="28.8" y2="28.8" x2="14.4" fill="none" stroke-linecap="round" x1="0.35" stroke-linejoin="round" stroke-width="0.7" stroke="#787878"/>
        <rect  id="connector14pin" fill="none" height="0.7" width="14.4" y="28.45" gorn="0.1.6"/>
        <rect  id="connector14terminal" fill="none" height="0.7" width="0" y="28.45" gorn="0.1.7"/>
        <g  transform="matrix(1 0 0 1 15.8 29.5)">
            <text  id="label14" fill="#8C8C8C" font-family="'DroidSans'" font-size="2.8" gorn="0.1.8.0">SCK/SCL</text>
        </g>
        <line  y1="36" y2="36" x2="14.4" fill="none" stroke-linecap="round" x1="0.35" stroke-linejoin="round" stroke-width="0.7" stroke="#787878"/>
        <rect  id="connector43pin" fill="none" height="0.7" width="14.4" y="35.65" gorn="0.1.10"/>
        <rect  id="connector43terminal" fill="none" height="0.7" width="0" y="35.65" gorn="0.1.11"/>
        <g  transform="matrix(1 0 0 1 15.8 36.7)">
            <text  id="label43" fill="#8C8C8C" font-family="'DroidSans'" font-size="2.8" gorn="0.1.12.0">SDO/ADR</text>
        </g>
        <line  y1="43.2" y2="43.2" x2="14.4" fill="none" stroke-linecap="round" x1="0.35" stroke-linejoin="round" stroke-width="0.7" stroke="#787878"/>
        <rect  id="connector13pin" fill="none" height="0.7" width="14.4" y="42.85" gorn="0.1.14"/>
        <rect  id="connector13terminal" fill="none" height="0.7" width="0" y="42.85" gorn="0.1.15"/>
        <g  transform="matrix(1 0 0 1 15.8 43.9)">
            <text  id="label13" fill="#8C8C8C" font-family="'DroidSans'" font-size="2.8" gorn="0.1.16.0">SDI/SDA</text>
        </g>
        <line  y1="28.8" y2="28.8" x2="86.0501" fill="none" stroke-linecap="round" x1="71.65" stroke-linejoin="round" stroke-width="0.7" stroke="#787878"/>
        <rect  id="connector45pin" fill="none" x="72" height="0.7" width="14.4" y="28.45" gorn="0.1.18"/>
        <rect  id="connector45terminal" fill="none" x="86.4" height="0.7" width="0" y="28.45" gorn="0.1.19"/>
        <g  transform="matrix(1 0 0 1 66.6728 29.5)">
            <text  id="label45" fill="#8C8C8C" font-family="'DroidSans'" font-size="2.8" gorn="0.1.20.0">CS</text>
        </g>
        <line  y1="36" y2="36" x2="86.0501" fill="none" stroke-linecap="round" x1="71.65" stroke-linejoin="round" stroke-width="0.7" stroke="#787878"/>
        <rect  id="connector46pin" fill="none" x="72" height="0.7" width="14.4" y="35.65" gorn="0.1.22"/>
        <rect  id="connector46terminal" fill="none" x="86.4" height="0.7" width="0" y="35.65" gorn="0.1.23"/>
        <g  transform="matrix(1 0 0 1 65.0458 36.7)">
            <text  id="label46" fill="#8C8C8C" font-family="'DroidSans'" font-size="2.8" gorn="0.1.24.0">INT</text>
        </g>
        <line  y1="0.35" y2="14.4" x2="43.2" fill="none" stroke-linecap="round" x1="43.2" stroke-linejoin="round" stroke-width="0.7" stroke="#787878"/>
        <rect  id="connector12pin" fill="none" x="42.85" height="14.4" width="0.7" y="0" gorn="0.1.26"/>
        <polygon  id="connector12terminal" fill="none" points="42.85,0 43.55,0 43.55,0 " gorn="0.1.27"/>
        <g  transform="matrix(1, 0, 0, 1, 44.6, 16)">
            <g >
                <g  transform="rotate(270)">
                    <g >
                        <g  transform="matrix(1 0 0 1 -6.0681 0)">
                            <text  id="label12" fill="#8C8C8C" font-family="'DroidSans'" font-size="2.8" gorn="0.1.28.0.0.0.0.0">VCC</text>
                        </g>
                    </g>
                </g>
            </g>
        </g>
        <line  y1="0.35" y2="14.4" x2="50.4" fill="none" stroke-linecap="round" x1="50.4" stroke-linejoin="round" stroke-width="0.7" stroke="#787878"/>
        <rect  id="connector40pin" fill="none" x="50.05" height="14.4" width="0.7" y="0" gorn="0.1.30"/>
        <polygon  id="connector40terminal" fill="none" points="50.05,0 50.75,0 50.75,0 " gorn="0.1.31"/>
        <g  transform="matrix(1, 0, 0, 1, 51.8, 16)">
            <g >
                <g  transform="rotate(270)">
                    <g >
                        <g  transform="matrix(1 0 0 1 -6.781 0)">
                            <text  id="label40" fill="#8C8C8C" font-family="'DroidSans'" font-size="2.8" gorn="0.1.32.0.0.0.0.0">3.3V</text>
                        </g>
                    </g>
                </g>
            </g>
        </g>
        <line  y1="57.6" y2="71.65" x2="43.2" fill="none" stroke-linecap="round" x1="43.2" stroke-linejoin="round" stroke-width="0.7" stroke="#787878"/>
        <rect  id="connector11pin" fill="none" x="42.85" height="14.4" width="0.7" y="57.6" gorn="0.1.34"/>
        <polygon  id="connector11terminal" fill="none" points="42.85,72 43.55,72 43.55,72 " gorn="0.1.35"/>
        <g  transform="matrix(1, 0, 0, 1, 44.6, 56)">
            <g >
                <g  transform="rotate(270)">
                    <g >
                        <g  transform="matrix(1 0 0 1 -0.0008 0)">
                            <text  id="label11" fill="#8C8C8C" font-family="'DroidSans'" font-size="2.8" gorn="0.1.36.0.0.0.0.0">GND</text>
                        </g>
                    </g>
                </g>
            </g>
        </g>
        <rect  id="connector39pin" fill="none" x="42.85" height="14.4" width="0.7" y="0" gorn="0.1.37"/>
        <polygon  id="connector39terminal" fill="none" points="42.85,0 43.55,0 43.55,0 " gorn="0.1.38"/>
        <rect  id="connector18pin" fill="none" x="42.85" height="14.4" width="0.7" y="0" gorn="0.1.39"/>
        <polygon  id="connector18terminal" fill="none" points="42.85,0 43.55,0 43.55,0 " gorn="0.1.40"/>
        <rect  id="connector41pin" fill="none" x="42.85" height="14.4" width="0.7" y="57.6" gorn="0.1.41"/>
        <polygon  id="connector41terminal" fill="none" points="42.85,72 43.55,72 43.55,72 " gorn="0.1.42"/>
        <rect  id="connector17pin" fill="none" x="42.85" height="14.4" width="0.7" y="57.6" gorn="0.1.43"/>
        <polygon  id="connector17terminal" fill="none" points="42.85,72 43.55,72 43.55,72 " gorn="0.1.44"/>
        <rect  id="connector42pin" fill="none" height="0.7" width="14.4" y="28.45" gorn="0.1.45"/>
        <rect  id="connector42terminal" fill="none" height="0.7" width="0" y="28.45" gorn="0.1.46"/>
        <rect  id="connector20pin" fill="none" height="0.7" width="14.4" y="28.45" gorn="0.1.47"/>
        <rect  id="connector20terminal" fill="none" height="0.7" width="0" y="28.45" gorn="0.1.48"/>
        <rect  id="connector44pin" fill="none" height="0.7" width="14.4" y="42.85" gorn="0.1.49"/>
        <rect  id="connector44terminal" fill="none" height="0.7" width="0" y="42.85" gorn="0.1.50"/>
        <rect  id="connector19pin" fill="none" height="0.7" width="14.4" y="42.85" gorn="0.1.51"/>
        <rect  id="connector19terminal" fill="none" height="0.7" width="0" y="42.85" gorn="0.1.52"/>
    </g>
</svg>
